<svg width="226" height="54" viewBox="0 0 226 54" fill="none" xmlns="http://www.w3.org/2000/svg">
<path fill-rule="evenodd" clip-rule="evenodd" d="M50.4162 1.69701C44.5375 2.71435 40.6322 5.57435 38.6842 8.85968C36.7362 12.1463 36.7442 15.8583 39.5815 20.705C42.4189 25.553 48.0842 31.5357 50.2282 35.0463C52.3709 38.557 50.9922 39.593 48.4655 40.5543C45.9389 41.5157 42.2655 42.401 40.2882 43.9677C38.3095 45.5343 38.0255 47.781 39.0842 49.445C40.1429 51.109 42.5442 52.1917 46.4269 52.781C50.3095 53.3717 55.6762 53.469 60.1629 52.3263C64.6482 51.1837 68.2535 48.8037 70.1642 45.4223C72.0735 42.0423 72.2869 37.661 70.0642 32.7477C67.8415 27.8357 63.1842 22.3903 61.3202 19.1583C59.4549 15.9263 60.3842 14.9077 62.6002 14.0223C64.8149 13.1357 68.3162 12.3823 70.0975 10.4557C71.8789 8.53035 71.9402 5.43168 68.0429 3.46901C64.1482 1.50501 56.2949 0.679681 50.4162 1.69701ZM117.89 26.6797C117.396 34.589 117.807 41.4744 118.771 45.573C119.734 49.673 121.25 50.989 123.674 51.8397C126.1 52.6903 129.435 53.077 132.136 52.489C134.836 51.901 136.904 50.337 137.583 45.0783C138.263 39.8197 137.554 30.8637 136.722 22.7823C135.888 14.701 134.934 7.49302 132.322 3.99302C129.71 0.491682 125.444 0.698344 122.611 5.26901C119.779 9.83834 118.383 18.7717 117.89 26.6797V26.6797ZM146.948 6.01968C145.27 9.96635 144.08 16.4063 143.656 23.5503C143.234 30.6957 143.576 38.5423 144.543 43.9717C145.51 49.401 147.1 52.413 149.514 52.7917C151.926 53.1717 155.163 50.9197 157.464 48.325C159.767 45.7317 161.135 42.7943 163.036 42.6743C164.939 42.5557 167.375 45.2517 169.858 47.6143C172.339 49.9757 174.867 52.0063 177.226 50.9277C179.584 49.8503 181.774 45.6637 183.611 43.4437C185.447 41.2223 186.93 40.9663 189.51 43.0077C192.088 45.0503 195.766 49.3877 198.11 48.5183C200.452 47.6477 201.464 41.5717 201.552 33.141C201.64 24.7103 200.806 13.9277 198.4 8.15301C195.998 2.37968 192.026 1.61435 187.803 3.26635C183.58 4.91835 179.108 8.98502 173.259 8.70635C167.411 8.42635 160.186 3.79835 155.49 2.21035C150.794 0.622346 148.627 2.07435 146.948 6.01968V6.01968ZM211.414 3.80768C208.754 5.36502 207.84 9.29435 207.455 14.681C207.07 20.0677 207.214 26.9117 207.148 32.945C207.083 38.9783 206.812 44.2023 207.874 47.1157C208.934 50.029 211.326 50.629 213.835 51.001C216.347 51.3703 218.974 51.5117 221.08 50.3423C223.187 49.1757 224.774 46.6983 224.986 38.737C225.198 30.7757 224.039 17.329 221.258 10.197C218.476 3.06635 214.072 2.25035 211.414 3.80768V3.80768ZM77.2735 5.00235C76.2215 8.51702 75.7029 14.1823 75.7935 21.1303C75.8829 28.0783 76.5829 36.309 77.8495 42.097C79.1162 47.8837 80.9509 51.2277 82.9775 51.8157C85.0042 52.4063 87.2215 50.241 88.9042 47.8077C90.5842 45.3743 91.7322 42.6717 93.9775 43.1597C96.2215 43.6477 99.5669 47.325 103.424 49.897C107.28 52.4704 111.651 53.9397 113.326 52.357C114.999 50.7757 113.975 46.1437 111.504 41.2783C109.035 36.4103 105.12 31.309 104.919 27.2117C104.718 23.113 108.232 20.0223 111.288 15.5063C114.344 10.993 116.942 5.05835 115.403 3.18635C113.864 1.31435 108.19 3.50635 103.362 5.75568C98.5335 8.00501 94.5535 10.3103 91.9975 9.72368C89.4415 9.13568 88.3095 5.65168 86.7949 3.34234C85.2815 1.03168 83.3855 -0.105655 81.6455 0.00767867C79.9055 0.121012 78.3242 1.48635 77.2735 5.00235V5.00235ZM18.4602 53.0117C12.8789 52.7997 7.49753 51.6437 4.42287 48.261C1.3482 44.877 0.582866 39.265 0.220199 33.5063C-0.143801 27.749 -0.106469 21.8437 0.713531 16.857C1.53353 11.869 3.13353 7.80102 5.58953 5.30635C8.04553 2.81168 11.3549 1.89301 15.9829 1.57835C20.6109 1.26101 26.5575 1.54635 29.8135 3.25435C33.0695 4.96368 33.6349 8.09302 32.0682 10.5303C30.5002 12.9663 26.7989 14.7077 24.6829 16.257C22.5655 17.8063 22.0335 19.1623 23.8562 20.5783C25.6789 21.993 29.8562 23.469 31.8402 25.497C33.8242 27.5263 33.6135 30.1077 31.5482 31.7743C29.4829 33.4397 25.5629 34.1903 23.7562 35.413C21.9482 36.637 22.2549 38.3357 24.5789 39.617C26.9029 40.901 31.2442 41.7703 33.4162 43.725C35.5882 45.6783 35.5935 48.7183 32.7069 50.605C29.8189 52.4917 24.0402 53.2237 18.4602 53.0117" fill="white"/>
</svg>
